<?xml version="1.0" encoding="utf-8"?>
<!-- Generator: Adobe Illustrator 21.0.0, SVG Export Plug-In . SVG Version: 6.00 Build 0)  -->
<svg version="1.1" id="图层_1" xmlns="http://www.w3.org/2000/svg" xmlns:xlink="http://www.w3.org/1999/xlink" x="0px" y="0px"
	 viewBox="0 0 186 186" style="enable-background:new 0 0 186 186;" xml:space="preserve">
<style type="text/css">
	.st0{fill:#F59C25;}
	.st1{fill:#FFFFFF;}
</style>
<title>默认图标1</title>
<desc>Created with Sketch.</desc>
<g id="Page-1">
	<g id="默认图标1">
		<rect id="Rectangle-Copy-4" class="st0" width="186" height="186"/>
		<path id="Combined-Shape" class="st1" d="M74,34v5c0,2.2,1.8,4,4,4h30c2.2,0,4-1.8,4-4v-5h21c2.2,0,4,1.8,4,4v110c0,2.2-1.8,4-4,4
			H53c-2.2,0-4-1.8-4-4V38c0-2.2,1.8-4,4-4H74z M69,62c-1.7,0-3,1.3-3,3s1.3,3,3,3h48c1.7,0,3-1.3,3-3s-1.3-3-3-3H69z M69,82
			c-1.7,0-3,1.3-3,3s1.3,3,3,3h33c1.7,0,3-1.3,3-3s-1.3-3-3-3H69z M108.5,106.1l-3.5,7.4l-7.8,1.2c-0.2,0-0.3,0.2-0.1,0.4l5.6,5.8
			l-1.3,8.2c0,0.2,0.1,0.3,0.3,0.2l7-3.8l7,3.8c0.2,0.1,0.3,0,0.3-0.2l-1.3-8.2l5.6-5.8c0.2-0.2,0.1-0.3-0.1-0.4l-7.8-1.2l-3.5-7.4
			C108.7,106,108.6,105.9,108.5,106.1z M82,31h22c1.1,0,2,0.9,2,2v2c0,1.1-0.9,2-2,2H82c-1.1,0-2-0.9-2-2v-2C80,31.9,80.9,31,82,31z
			"/>
	</g>
</g>
</svg>
