<?xml version="1.0" encoding="utf-8"?>
<!-- Generator: Adobe Illustrator 21.0.0, SVG Export Plug-In . SVG Version: 6.00 Build 0)  -->
<svg version="1.1" id="图层_1" xmlns="http://www.w3.org/2000/svg" xmlns:xlink="http://www.w3.org/1999/xlink" x="0px" y="0px"
	 viewBox="0 0 186 186" style="enable-background:new 0 0 186 186;" xml:space="preserve">
<style type="text/css">
	.st0{fill:#5DC663;}
	.st1{fill:#FFFFFF;}
</style>
<title>out</title>
<desc>Created with Sketch.</desc>
<g id="Page-1">
	<g id="移动端" transform="translate(-213.000000, 0.000000)">
		<g id="out" transform="translate(213.000000, 0.000000)">
			<rect id="Rectangle-10-Copy-7" class="st0" width="186" height="186"/>
			<path id="Combined-Shape" class="st1" d="M116.1,143H70c0,4.4-3.6,8-8,8s-8-3.6-8-8H38c-2.2,0-4-1.8-4-4V67c0-2.2,1.8-4,4-4h110
				c2.2,0,4,1.8,4,4v72c0,2.2-1.8,4-4,4h-16.1c0,0.3,0.1,0.7,0.1,1c0,4.4-3.6,8-8,8c-4.4,0-8-3.6-8-8C116,143.7,116,143.3,116.1,143
				L116.1,143z"/>
			<path id="Rectangle-24" class="st1" d="M75,52c-2.2,0-4,1.8-4,4v46c0,2.2,1.8,4,4,4h36c2.2,0,4-1.8,4-4V56c0-2.2-1.8-4-4-4H75z
				 M75,44h36c6.6,0,12,5.4,12,12v46c0,6.6-5.4,12-12,12H75c-6.6,0-12-5.4-12-12V56C63,49.4,68.4,44,75,44z"/>
			<path id="Combined-Shape_1_" class="st0" d="M68,82c2.2,0,4,1.8,4,4v34c0,2.2-1.8,4-4,4s-4-1.8-4-4V86C64,83.8,65.8,82,68,82z
				 M118,82c2.2,0,4,1.8,4,4v34c0,2.2-1.8,4-4,4s-4-1.8-4-4V86C114,83.8,115.8,82,118,82z"/>
		</g>
	</g>
</g>
</svg>
