<?xml version="1.0" encoding="utf-8"?>
<!-- Generator: Adobe Illustrator 21.0.0, SVG Export Plug-In . SVG Version: 6.00 Build 0)  -->
<svg version="1.1" id="图层_1" xmlns="http://www.w3.org/2000/svg" xmlns:xlink="http://www.w3.org/1999/xlink" x="0px" y="0px"
	 viewBox="0 0 186 186" style="enable-background:new 0 0 186 186;" xml:space="preserve">
<style type="text/css">
	.st0{fill:#4990E2;}
	.st1{fill:#FFFFFF;}
</style>
<title>meeting</title>
<desc>Created with Sketch.</desc>
<g id="Page-1">
	<g id="移动端" transform="translate(-1028.000000, -215.000000)">
		<g id="meeting" transform="translate(1028.000000, 215.000000)">
			<rect id="Rectangle-10-Copy-12" class="st0" width="186" height="186"/>
			<path id="Rectangle-29" class="st1" d="M43,141h106c1.7,0,3,1.3,3,3s-1.3,3-3,3H43c-1.7,0-3-1.3-3-3S41.3,141,43,141z"/>
			<path id="Combined-Shape" class="st1" d="M49.6,127.7l7.2-22.5l20.4,20.4l-22.5,7.2c-2.1,0.7-4.4-0.5-5-2.6
				C49.3,129.4,49.3,128.5,49.6,127.7z M81,121.8L61.2,102l61.6-61.6c1.6-1.6,4.1-1.6,5.7,0l14.1,14.1c1.6,1.6,1.6,4.1,0,5.7
				L81,121.8z"/>
		</g>
	</g>
</g>
</svg>
