<?xml version="1.0" encoding="utf-8"?>
<!-- Generator: Adobe Illustrator 21.0.0, SVG Export Plug-In . SVG Version: 6.00 Build 0)  -->
<svg version="1.1" id="图层_1" xmlns="http://www.w3.org/2000/svg" xmlns:xlink="http://www.w3.org/1999/xlink" x="0px" y="0px"
	 viewBox="0 0 186 186" style="enable-background:new 0 0 186 186;" xml:space="preserve">
<style type="text/css">
	.st0{fill:#F59C25;}
	.st1{fill:#FFFFFF;}
</style>
<title>order</title>
<desc>Created with Sketch.</desc>
<g id="Page-1">
	<g id="移动端" transform="translate(-419.000000, -434.000000)">
		<g id="order" transform="translate(419.000000, 434.000000)">
			<rect id="Rectangle-Copy-8" class="st0" width="186" height="186"/>
			<path id="Rectangle-2" class="st1" d="M53,34h80c2.2,0,4,1.8,4,4v110c0,2.2-1.8,4-4,4H53c-2.2,0-4-1.8-4-4V38
				C49,35.8,50.8,34,53,34z"/>
			<path id="Combined-Shape" class="st0" d="M89.5,99.5v-6c0,0,0,0,0,0H75c-1.7,0-3-1.3-3-3c0-1.7,1.3-3,3-3h12L74.2,65.5
				c-0.8-1.4-0.3-3.3,1.1-4.1c1.4-0.8,3.3-0.3,4.1,1.1l13.2,22.8l13.2-22.8c0.8-1.4,2.7-1.9,4.1-1.1c1.4,0.8,1.9,2.7,1.1,4.1
				L98.3,87.6h11.8c1.7,0,3,1.3,3,3c0,1.7-1.3,3-3,3H95.5c0,0,0,0,0,0v6h14.5c1.7,0,3,1.3,3,3c0,1.7-1.3,3-3,3H95.5v16.6
				c0,1.7-1.3,3-3,3c-1.7,0-3-1.3-3-3v-16.6H75c-1.7,0-3-1.3-3-3c0-1.7,1.3-3,3-3H89.5z"/>
			<path id="Rectangle-124-Copy" class="st0" d="M78,25h30c2.2,0,4,1.8,4,4v10c0,2.2-1.8,4-4,4H78c-2.2,0-4-1.8-4-4V29
				C74,26.8,75.8,25,78,25z"/>
			<polygon id="Path" class="st1" points="80,31 80,37 106,37 106,31 			"/>
		</g>
	</g>
</g>
</svg>
