<?xml version="1.0" encoding="utf-8"?>
<!-- Generator: Adobe Illustrator 21.0.0, SVG Export Plug-In . SVG Version: 6.00 Build 0)  -->
<svg version="1.1" id="图层_1" xmlns="http://www.w3.org/2000/svg" xmlns:xlink="http://www.w3.org/1999/xlink" x="0px" y="0px"
	 viewBox="0 0 186 186" style="enable-background:new 0 0 186 186;" xml:space="preserve">
<style type="text/css">
	.st0{fill:#5DC663;}
	.st1{fill:#FFFFFF;}
</style>
<title>shopping</title>
<desc>Created with Sketch.</desc>
<g id="Page-1">
	<g id="移动端" transform="translate(-216.000000, -434.000000)">
		<g id="shopping" transform="translate(216.000000, 434.000000)">
			<rect id="Rectangle-10-Copy-9" class="st0" width="186" height="186"/>
			<path id="Combined-Shape" class="st1" d="M53.6,56.1l91,0c2.1,0,3.5,1.7,3,3.8l-9.9,44.5c-0.5,2.1-2.6,3.8-4.8,3.8H59.9l1.1,9.1
				h71.8c2.6,0,4.7,2,4.7,4.3c0,2.4-2.1,4.3-4.7,4.3H59.2c-0.3,0.1-0.7,0.1-1,0.1h-0.9c-2.1,0-4.1-1.8-4.4-3.9L44,47.8h-9.3
				c-2.6,0-4.7-2-4.7-4.3c0-2.4,2.1-4.3,4.7-4.3h11.1c0.3-0.1,0.7-0.1,1-0.1h0.9c2.1,0,4.1,1.8,4.4,3.9L53.6,56.1z M69.1,148.4
				c-3.4,0-6.1-3-6.1-6.7c0-3.7,2.7-6.7,6.1-6.7c3.4,0,6.1,3,6.1,6.7C75.3,145.4,72.5,148.4,69.1,148.4z M116.1,148.4
				c-3.4,0-6.1-3-6.1-6.7c0-3.7,2.7-6.7,6.1-6.7c3.4,0,6.1,3,6.1,6.7C122.3,145.4,119.5,148.4,116.1,148.4z"/>
		</g>
	</g>
</g>
</svg>
