<?xml version="1.0" encoding="utf-8"?>
<!-- Generator: Adobe Illustrator 21.0.0, SVG Export Plug-In . SVG Version: 6.00 Build 0)  -->
<svg version="1.1" id="图层_1" xmlns="http://www.w3.org/2000/svg" xmlns:xlink="http://www.w3.org/1999/xlink" x="0px" y="0px"
	 viewBox="0 0 186 186" style="enable-background:new 0 0 186 186;" xml:space="preserve">
<style type="text/css">
	.st0{fill:#F06B36;}
	.st1{fill:#FFFFFF;}
</style>
<title>print</title>
<desc>Created with Sketch.</desc>
<g id="Page-1">
	<g id="移动端" transform="translate(-622.000000, 0.000000)">
		<g id="print" transform="translate(622.000000, 0.000000)">
			<rect id="Rectangle-Copy-2" class="st0" width="186" height="186"/>
			<path id="Triangle-4" class="st1" d="M74.3,125v-24.2C63.9,95,57,83.9,57,71.2C57,52.3,72.4,37,91.4,37s34.4,15.3,34.4,34.2
				c0,12.7-6.9,23.7-17.3,29.7V125H74.3z"/>
			<path id="Rectangle-92" class="st1" d="M52,131h79c2.2,0,4,1.8,4,4v13c0,2.2-1.8,4-4,4H52c-2.2,0-4-1.8-4-4v-13
				C48,132.8,49.8,131,52,131z"/>
		</g>
	</g>
</g>
</svg>
