<?xml version="1.0" encoding="utf-8"?>
<!-- Generator: Adobe Illustrator 21.0.0, SVG Export Plug-In . SVG Version: 6.00 Build 0)  -->
<svg version="1.1" id="图层_1" xmlns="http://www.w3.org/2000/svg" xmlns:xlink="http://www.w3.org/1999/xlink" x="0px" y="0px"
	 viewBox="0 0 186 186" style="enable-background:new 0 0 186 186;" xml:space="preserve">
<style type="text/css">
	.st0{fill:#3CBAFF;}
	.st1{fill:#FFFFFF;}
</style>
<title>Template/buka</title>
<desc>Created with Sketch.</desc>
<g id="Page-1">
	<g id="Template_x2F_buka">
		<rect id="Rectangle-Copy-5" class="st0" width="186" height="186"/>
		<path id="Rectangle-6" class="st1" d="M59,42h68c2.2,0,4,1.8,4,4v4H55v-4C55,43.8,56.8,42,59,42z"/>
		<path id="Rectangle-6_1_" class="st1" d="M49,53h88c2.2,0,4,1.8,4,4v4H45v-4C45,54.8,46.8,53,49,53z"/>
		<path id="Rectangle-6_2_" class="st1" d="M38,64h110c2.2,0,4,1.8,4,4v72c0,2.2-1.8,4-4,4H38c-2.2,0-4-1.8-4-4V68
			C34,65.8,35.8,64,38,64z"/>
		<path id="Combined-Shape" class="st0" d="M97,102h17c2.2,0,4,1.8,4,4s-1.8,4-4,4H93c-2.2,0-4-1.8-4-4V80.5c0-2.2,1.8-4,4-4
			s4,1.8,4,4V102z"/>
	</g>
</g>
</svg>
